<svg width="1440" height="960" viewBox="0 0 1440 960" fill="none" xmlns="http://www.w3.org/2000/svg">
  <defs>
    <linearGradient id="bg" x1="240" y1="120" x2="1200" y2="900" gradientUnits="userSpaceOnUse">
      <stop stop-color="#181A21"/>
      <stop offset="1" stop-color="#101218"/>
    </linearGradient>
    <linearGradient id="cardStroke" x1="420" y1="0" x2="1020" y2="160" gradientUnits="userSpaceOnUse">
      <stop stop-color="rgba(255,255,255,0.10)"/>
      <stop offset="1" stop-color="rgba(255,255,255,0.04)"/>
    </linearGradient>
    <linearGradient id="thinkingRing" x1="0" y1="0" x2="24" y2="24" gradientUnits="userSpaceOnUse">
      <stop stop-color="#7C90FF"/>
      <stop offset="1" stop-color="#4F66E8"/>
    </linearGradient>
    <linearGradient id="toolRing" x1="0" y1="0" x2="24" y2="24" gradientUnits="userSpaceOnUse">
      <stop stop-color="#4FD1A5"/>
      <stop offset="1" stop-color="#169B75"/>
    </linearGradient>
    <linearGradient id="answerRing" x1="0" y1="0" x2="24" y2="24" gradientUnits="userSpaceOnUse">
      <stop stop-color="#6AD96F"/>
      <stop offset="1" stop-color="#2DBE53"/>
    </linearGradient>
    <filter id="softGlow" x="-60%" y="-60%" width="220%" height="220%" filterUnits="objectBoundingBox">
      <feGaussianBlur stdDeviation="7" result="blur"/>
      <feColorMatrix in="blur" type="matrix" values="1 0 0 0 0  0 1 0 0 0.8  0 0 1 0 0.8  0 0 0 0.24 0"/>
    </filter>
    <filter id="ringGlow" x="-70%" y="-70%" width="240%" height="240%" filterUnits="objectBoundingBox">
      <feGaussianBlur stdDeviation="4" result="blur"/>
      <feColorMatrix in="blur" type="matrix" values="1 0 0 0 0  0 1 0 0 0.8  0 0 1 0 0.8  0 0 0 0.35 0"/>
    </filter>
    <style>
      .title { font: 700 36px "Microsoft YaHei", "PingFang SC", sans-serif; fill: #F4F7FB; }
      .subtitle { font: 400 18px "Microsoft YaHei", "PingFang SC", sans-serif; fill: #8F98AA; }
      .label { font: 600 13px "Microsoft YaHei", "PingFang SC", sans-serif; fill: #B5BECE; letter-spacing: 0.6px; }
      .status { font: 600 20px "Microsoft YaHei", "PingFang SC", sans-serif; fill: #E8EDF5; }
      .hint { font: 400 15px "Microsoft YaHei", "PingFang SC", sans-serif; fill: #8891A2; }
      .body { font: 500 22px "Microsoft YaHei", "PingFang SC", sans-serif; fill: #DDE4F0; }
      .code { font: 600 18px "Consolas", monospace; fill: #8EC2FF; }
    </style>
  </defs>

  <rect width="1440" height="960" fill="url(#bg)"/>
  <circle cx="1220" cy="182" r="240" fill="#1A2130" opacity="0.26"/>
  <circle cx="150" cy="860" r="260" fill="#111827" opacity="0.34"/>

  <text x="172" y="120" class="title">方案一 · 呼吸环 + 状态文案</text>
  <text x="172" y="156" class="subtitle">静态样式图，真实实现时左侧圆环会持续旋转并伴随轻微呼吸脉冲。</text>

  <g transform="translate(156 214)">
    <text x="0" y="0" class="label">STATE A</text>
    <rect x="0" y="26" rx="22" ry="22" width="1128" height="118" fill="#181B23" stroke="rgba(255,255,255,0.08)"/>
    <rect x="1" y="27" rx="21" ry="21" width="1126" height="116" fill="rgba(255,255,255,0.02)"/>
    <circle cx="62" cy="85" r="16" fill="#7C90FF" opacity="0.16" filter="url(#softGlow)"/>
    <g transform="translate(50 73)">
      <circle cx="12" cy="12" r="10" stroke="url(#thinkingRing)" stroke-width="3.6" stroke-linecap="round" stroke-dasharray="42 24" filter="url(#ringGlow)"/>
      <circle cx="12" cy="12" r="5.5" fill="#F7FAFF"/>
    </g>
    <text x="92" y="91" class="status">思考中...</text>
    <text x="92" y="121" class="hint">模型正在组织推理路径，尚未进入工具调用阶段。</text>
  </g>

  <g transform="translate(156 378)">
    <text x="0" y="0" class="label">STATE B</text>
    <rect x="0" y="26" rx="22" ry="22" width="1128" height="118" fill="#181B23" stroke="rgba(255,255,255,0.08)"/>
    <rect x="1" y="27" rx="21" ry="21" width="1126" height="116" fill="rgba(255,255,255,0.02)"/>
    <circle cx="62" cy="85" r="16" fill="#3ED3A2" opacity="0.15" filter="url(#softGlow)"/>
    <g transform="translate(50 73)">
      <circle cx="12" cy="12" r="10" stroke="url(#toolRing)" stroke-width="3.6" stroke-linecap="round" stroke-dasharray="42 24" filter="url(#ringGlow)"/>
      <circle cx="12" cy="12" r="5.5" fill="#F7FAFF"/>
    </g>
    <text x="92" y="91" class="status">调用工具中...</text>
    <text x="92" y="121" class="hint">正在读取文件、搜索内容或执行命令，状态条持续运动避免“卡住”错觉。</text>
  </g>

  <g transform="translate(156 542)">
    <text x="0" y="0" class="label">STATE C</text>
    <rect x="0" y="26" rx="22" ry="22" width="1128" height="118" fill="#181B23" stroke="rgba(255,255,255,0.08)"/>
    <rect x="1" y="27" rx="21" ry="21" width="1126" height="116" fill="rgba(255,255,255,0.02)"/>
    <circle cx="62" cy="85" r="16" fill="#61D96A" opacity="0.17" filter="url(#softGlow)"/>
    <g transform="translate(50 73)">
      <circle cx="12" cy="12" r="10" stroke="url(#answerRing)" stroke-width="3.6" stroke-linecap="round" stroke-dasharray="42 24" filter="url(#ringGlow)"/>
      <circle cx="12" cy="12" r="5.5" fill="#F7FAFF"/>
    </g>
    <text x="92" y="91" class="status">正在生成回答...</text>
    <text x="92" y="121" class="hint">工具结果已返回，AI 正在把信息整理成最终答复。</text>
  </g>

  <g transform="translate(156 706)">
    <text x="0" y="0" class="label">STATE D</text>
    <rect x="0" y="26" rx="22" ry="22" width="1128" height="118" fill="#171A22" stroke="rgba(72,209,125,0.20)"/>
    <rect x="1" y="27" rx="21" ry="21" width="1126" height="116" fill="rgba(72,209,125,0.03)"/>
    <g transform="translate(48 71)">
      <circle cx="14" cy="14" r="14" fill="#22C55E"/>
      <path d="M9.5 14.3L12.5 17.3L18.8 10.8" stroke="#F8FBFF" stroke-width="2.6" stroke-linecap="round" stroke-linejoin="round"/>
    </g>
    <text x="92" y="91" class="status">工具调用已完成</text>
    <text x="92" y="121" class="hint">只有整条回答结束后才切成静态完成态，避免工具先回完但正文还在生成时误导用户。</text>
  </g>

  <g transform="translate(920 214)">
    <rect x="0" y="0" rx="20" ry="20" width="260" height="164" fill="rgba(255,255,255,0.03)" stroke="rgba(255,255,255,0.08)"/>
    <text x="26" y="38" class="label">使用建议</text>
    <text x="26" y="74" class="hint">1. 状态条保持一行，不要太高。</text>
    <text x="26" y="102" class="hint">2. 左侧动效持续但克制，不抢正文。</text>
    <text x="26" y="130" class="hint">3. 完成后再切静态勾选。</text>
  </g>

  <g transform="translate(188 856)">
    <text x="0" y="0" class="body">推荐最终落地：顶部保留这一条统一状态反馈，正文下方只承载真正的回答内容。</text>
  </g>
</svg>
